<?xml version="1.0" encoding="utf-8"?>
<!-- Generator: Adobe Illustrator 26.0.1, SVG Export Plug-In . SVG Version: 6.00 Build 0)  -->
<svg version="1.1" id="Слой_1" xmlns="http://www.w3.org/2000/svg" xmlns:xlink="http://www.w3.org/1999/xlink" x="0px" y="0px"
	 viewBox="0 0 100 132.1" style="enable-background:new 0 0 100 132.1;" xml:space="preserve">
<style type="text/css">
	.st0{fill:#FFFFFF;}
</style>
<g>
	<path class="st0" d="M20.3,47.8c0.4,0,0.9-0.1,1.3-0.3l57.5-34L51,43.6c-0.7,0.7-0.9,1.8-0.5,2.7s1.3,1.5,2.3,1.5h44.7
		c1.4,0,2.5-1.1,2.5-2.5s-1.1-2.5-2.5-2.5h-39l36-38.6c0.8-0.9,0.9-2.3,0.1-3.3c-0.8-1-2.2-1.2-3.2-0.6L19,43.1
		c-1.2,0.7-1.6,2.2-0.9,3.4C18.6,47.3,19.4,47.8,20.3,47.8z"/>
	<path class="st0" d="M78.5,84.7l-57.5,34L49,88.6c0.7-0.7,0.9-1.8,0.5-2.7c-0.4-0.9-1.3-1.5-2.3-1.5H2.5c-1.4,0-2.5,1.1-2.5,2.5
		s1.1,2.5,2.5,2.5h39l-36,38.6c-0.8,0.9-0.9,2.3-0.1,3.3c0.5,0.6,1.2,0.9,1.9,0.9c0.4,0,0.9-0.1,1.3-0.3L81,89
		c1.2-0.7,1.6-2.2,0.9-3.4C81.2,84.4,79.6,84,78.5,84.7z"/>
	<path class="st0" d="M1.8,79.2c1.3,0,1.9-0.5,1.9-1.6V58.8l16,19.4c0.5,0.7,1.2,1,2.1,1c1.1,0,1.7-0.5,1.7-1.6V54.6
		c0-1.1-0.6-1.7-1.9-1.7c-0.5,0-1,0.2-1.3,0.5c-0.3,0.3-0.5,0.7-0.5,1.2v18.7l-0.1,0.1L3.7,54c-0.6-0.7-1.3-1.1-2.1-1.1
		c-1,0-1.6,0.6-1.6,1.7v22.9C0,78.7,0.6,79.2,1.8,79.2z"/>
	<path class="st0" d="M41.4,56.2c1.1,0,1.7-0.5,1.7-1.5s-0.5-1.5-1.6-1.5H30c-0.5,0-0.9,0.2-1.2,0.5c-0.3,0.4-0.4,0.8-0.4,1.2v22.2
		c0,1.1,0.6,1.7,1.8,1.7h11c1.2,0,1.8-0.5,1.8-1.4c0-1-0.5-1.5-1.6-1.5h-9.4v-9.3H41c1.1,0,1.7-0.5,1.7-1.4c0-0.9-0.6-1.4-1.7-1.4
		h-8.8v-7.7H41.4z"/>
	<path class="st0" d="M49.5,57c-2.3,2.5-3.4,5.5-3.4,9.1c0,3.5,1.2,6.5,3.5,9c2.5,2.7,5.8,4,9.8,4c4.1,0,7.4-1.3,9.9-4
		c2.3-2.5,3.5-5.5,3.5-9c0-3.6-1.1-6.6-3.4-9.1c-2.5-2.7-5.8-4-10-4C55.3,53,52,54.3,49.5,57z M66.7,59.1c1.4,1.8,2.1,4.1,2.1,7
		c0,1.5-0.2,2.7-0.5,3.8c-0.6,1.9-1.6,3.4-3.1,4.6c-1.6,1.2-3.5,1.8-5.8,1.8c-3.1,0-5.5-1.1-7.2-3.3c-1.4-1.9-2.1-4.2-2.1-7
		c0-2.8,0.7-5.2,2.1-7c1.7-2.1,4.1-3.2,7.2-3.2C62.6,55.9,65,56.9,66.7,59.1z"/>
	<path class="st0" d="M98.1,52.9c-0.5,0-1,0.2-1.3,0.5c-0.3,0.3-0.5,0.7-0.5,1.2v18.7l-0.1,0.1L80.2,54c-0.6-0.7-1.3-1.1-2.1-1.1
		c-1,0-1.6,0.6-1.6,1.7v22.9c0,1.1,0.6,1.6,1.8,1.6c1.3,0,1.9-0.5,1.9-1.6V58.8l16,19.4c0.5,0.7,1.2,1,2.1,1c1.1,0,1.7-0.5,1.7-1.6
		V54.6C100,53.5,99.4,52.9,98.1,52.9z"/>
</g>
</svg>
